<mxfile host="app.diagrams.net" agent="Mozilla/5.0 (Windows NT 10.0; Win64; x64) AppleWebKit/537.36 (KHTML, like Gecko) Chrome/134.0.0.0 Safari/537.36" version="26.1.1">
  <diagram name="Page-1" id="L6eBhJYJuVJtS-lWsABN">
    <mxGraphModel dx="2200" dy="2270" grid="1" gridSize="10" guides="1" tooltips="1" connect="1" arrows="1" fold="1" page="1" pageScale="1" pageWidth="850" pageHeight="1100" math="0" shadow="0">
      <root>
        <mxCell id="0" />
        <mxCell id="1" parent="0" />
        <mxCell id="oobsunCXvlvsP6w-91vc-26" style="edgeStyle=orthogonalEdgeStyle;rounded=0;orthogonalLoop=1;jettySize=auto;html=1;exitX=0.5;exitY=1;exitDx=0;exitDy=0;entryX=0.5;entryY=0;entryDx=0;entryDy=0;" edge="1" parent="1" source="oobsunCXvlvsP6w-91vc-1" target="oobsunCXvlvsP6w-91vc-2">
          <mxGeometry relative="1" as="geometry" />
        </mxCell>
        <mxCell id="oobsunCXvlvsP6w-91vc-1" value="Dodanie produktu do koszyka&lt;div&gt;&lt;br&gt;&lt;/div&gt;" style="rounded=0;whiteSpace=wrap;html=1;" vertex="1" parent="1">
          <mxGeometry x="210" y="50" width="120" height="60" as="geometry" />
        </mxCell>
        <mxCell id="oobsunCXvlvsP6w-91vc-27" style="edgeStyle=orthogonalEdgeStyle;rounded=0;orthogonalLoop=1;jettySize=auto;html=1;exitX=0.5;exitY=1;exitDx=0;exitDy=0;entryX=0.5;entryY=0;entryDx=0;entryDy=0;" edge="1" parent="1" source="oobsunCXvlvsP6w-91vc-2" target="oobsunCXvlvsP6w-91vc-3">
          <mxGeometry relative="1" as="geometry" />
        </mxCell>
        <mxCell id="oobsunCXvlvsP6w-91vc-2" value="Przejście do koszyka" style="rounded=0;whiteSpace=wrap;html=1;" vertex="1" parent="1">
          <mxGeometry x="210" y="120" width="120" height="60" as="geometry" />
        </mxCell>
        <mxCell id="oobsunCXvlvsP6w-91vc-28" style="edgeStyle=orthogonalEdgeStyle;rounded=0;orthogonalLoop=1;jettySize=auto;html=1;exitX=0.5;exitY=1;exitDx=0;exitDy=0;entryX=0.5;entryY=0;entryDx=0;entryDy=0;" edge="1" parent="1" source="oobsunCXvlvsP6w-91vc-3" target="oobsunCXvlvsP6w-91vc-4">
          <mxGeometry relative="1" as="geometry" />
        </mxCell>
        <mxCell id="oobsunCXvlvsP6w-91vc-3" value="Zakup Zawartości Koszyka" style="rounded=0;whiteSpace=wrap;html=1;" vertex="1" parent="1">
          <mxGeometry x="210" y="190" width="120" height="60" as="geometry" />
        </mxCell>
        <mxCell id="oobsunCXvlvsP6w-91vc-23" style="edgeStyle=orthogonalEdgeStyle;rounded=0;orthogonalLoop=1;jettySize=auto;html=1;" edge="1" parent="1" source="oobsunCXvlvsP6w-91vc-4">
          <mxGeometry relative="1" as="geometry">
            <mxPoint x="270" y="410" as="targetPoint" />
          </mxGeometry>
        </mxCell>
        <mxCell id="oobsunCXvlvsP6w-91vc-4" value="PodanieAdresu" style="rounded=0;whiteSpace=wrap;html=1;" vertex="1" parent="1">
          <mxGeometry x="210" y="260" width="120" height="60" as="geometry" />
        </mxCell>
        <mxCell id="oobsunCXvlvsP6w-91vc-19" style="edgeStyle=orthogonalEdgeStyle;rounded=0;orthogonalLoop=1;jettySize=auto;html=1;entryX=0.5;entryY=0;entryDx=0;entryDy=0;" edge="1" parent="1" source="oobsunCXvlvsP6w-91vc-6" target="oobsunCXvlvsP6w-91vc-11">
          <mxGeometry relative="1" as="geometry" />
        </mxCell>
        <mxCell id="oobsunCXvlvsP6w-91vc-6" value="Wybór metody płatności" style="rounded=0;whiteSpace=wrap;html=1;" vertex="1" parent="1">
          <mxGeometry x="210" y="550" width="120" height="60" as="geometry" />
        </mxCell>
        <mxCell id="oobsunCXvlvsP6w-91vc-21" style="edgeStyle=orthogonalEdgeStyle;rounded=0;orthogonalLoop=1;jettySize=auto;html=1;exitX=0.5;exitY=1;exitDx=0;exitDy=0;entryX=0.5;entryY=0;entryDx=0;entryDy=0;" edge="1" parent="1" source="oobsunCXvlvsP6w-91vc-7" target="oobsunCXvlvsP6w-91vc-14">
          <mxGeometry relative="1" as="geometry" />
        </mxCell>
        <mxCell id="oobsunCXvlvsP6w-91vc-22" style="edgeStyle=orthogonalEdgeStyle;rounded=0;orthogonalLoop=1;jettySize=auto;html=1;exitX=1;exitY=0.5;exitDx=0;exitDy=0;entryX=1;entryY=0.5;entryDx=0;entryDy=0;" edge="1" parent="1" source="oobsunCXvlvsP6w-91vc-7" target="oobsunCXvlvsP6w-91vc-4">
          <mxGeometry relative="1" as="geometry">
            <Array as="points">
              <mxPoint x="380" y="380" />
              <mxPoint x="380" y="290" />
            </Array>
          </mxGeometry>
        </mxCell>
        <mxCell id="oobsunCXvlvsP6w-91vc-7" value="Poprawność adressu" style="rhombus;whiteSpace=wrap;html=1;" vertex="1" parent="1">
          <mxGeometry x="230" y="340" width="80" height="80" as="geometry" />
        </mxCell>
        <mxCell id="oobsunCXvlvsP6w-91vc-17" style="edgeStyle=orthogonalEdgeStyle;rounded=0;orthogonalLoop=1;jettySize=auto;html=1;exitX=0.5;exitY=1;exitDx=0;exitDy=0;entryX=0.5;entryY=0;entryDx=0;entryDy=0;" edge="1" parent="1" source="oobsunCXvlvsP6w-91vc-11" target="oobsunCXvlvsP6w-91vc-12">
          <mxGeometry relative="1" as="geometry" />
        </mxCell>
        <mxCell id="oobsunCXvlvsP6w-91vc-11" value="Płatność" style="rounded=0;whiteSpace=wrap;html=1;" vertex="1" parent="1">
          <mxGeometry x="210" y="650" width="120" height="60" as="geometry" />
        </mxCell>
        <mxCell id="oobsunCXvlvsP6w-91vc-16" style="edgeStyle=orthogonalEdgeStyle;rounded=0;orthogonalLoop=1;jettySize=auto;html=1;exitX=0.5;exitY=1;exitDx=0;exitDy=0;entryX=0.5;entryY=0;entryDx=0;entryDy=0;" edge="1" parent="1" source="oobsunCXvlvsP6w-91vc-12" target="oobsunCXvlvsP6w-91vc-15">
          <mxGeometry relative="1" as="geometry" />
        </mxCell>
        <mxCell id="oobsunCXvlvsP6w-91vc-18" style="edgeStyle=orthogonalEdgeStyle;rounded=0;orthogonalLoop=1;jettySize=auto;html=1;exitX=1;exitY=0.5;exitDx=0;exitDy=0;entryX=1;entryY=0.5;entryDx=0;entryDy=0;" edge="1" parent="1" source="oobsunCXvlvsP6w-91vc-12" target="oobsunCXvlvsP6w-91vc-6">
          <mxGeometry relative="1" as="geometry">
            <Array as="points">
              <mxPoint x="370" y="790" />
              <mxPoint x="370" y="580" />
            </Array>
          </mxGeometry>
        </mxCell>
        <mxCell id="oobsunCXvlvsP6w-91vc-12" value="Skukces" style="rhombus;whiteSpace=wrap;html=1;" vertex="1" parent="1">
          <mxGeometry x="230" y="740" width="80" height="80" as="geometry" />
        </mxCell>
        <mxCell id="oobsunCXvlvsP6w-91vc-20" style="edgeStyle=orthogonalEdgeStyle;rounded=0;orthogonalLoop=1;jettySize=auto;html=1;exitX=0.5;exitY=1;exitDx=0;exitDy=0;entryX=0.5;entryY=0;entryDx=0;entryDy=0;" edge="1" parent="1" source="oobsunCXvlvsP6w-91vc-14" target="oobsunCXvlvsP6w-91vc-6">
          <mxGeometry relative="1" as="geometry" />
        </mxCell>
        <mxCell id="oobsunCXvlvsP6w-91vc-14" value="Wybór metody wysyłki" style="rounded=0;whiteSpace=wrap;html=1;" vertex="1" parent="1">
          <mxGeometry x="210" y="470" width="120" height="60" as="geometry" />
        </mxCell>
        <mxCell id="oobsunCXvlvsP6w-91vc-15" value="Koniec" style="ellipse;whiteSpace=wrap;html=1;aspect=fixed;" vertex="1" parent="1">
          <mxGeometry x="230" y="850" width="80" height="80" as="geometry" />
        </mxCell>
        <mxCell id="oobsunCXvlvsP6w-91vc-25" style="edgeStyle=orthogonalEdgeStyle;rounded=0;orthogonalLoop=1;jettySize=auto;html=1;exitX=0.5;exitY=1;exitDx=0;exitDy=0;entryX=0.5;entryY=0;entryDx=0;entryDy=0;" edge="1" parent="1" source="oobsunCXvlvsP6w-91vc-24" target="oobsunCXvlvsP6w-91vc-1">
          <mxGeometry relative="1" as="geometry" />
        </mxCell>
        <mxCell id="oobsunCXvlvsP6w-91vc-24" value="Start" style="ellipse;whiteSpace=wrap;html=1;" vertex="1" parent="1">
          <mxGeometry x="210" y="-50" width="120" height="70" as="geometry" />
        </mxCell>
      </root>
    </mxGraphModel>
  </diagram>
</mxfile>
